name Run_200 01_newCOP3_v24.mot
datacolumns 19
datarows 71
range 3.970833 4.04375
DataType=double
version=3
OpenSimVersion=4.3-2021-08-27-4bc7ad9
endheader
time	R_ground_force_vx	R_ground_force_vy	R_ground_force_vz	R_ground_force_px	R_ground_force_py	R_ground_force_pz	L_ground_force_vx	L_ground_force_vy	L_ground_force_vz	L_ground_force_px	L_ground_force_py	L_ground_force_pz	R_ground_torque_x	R_ground_torque_y	R_ground_torque_z	L_ground_torque_x	L_ground_torque_y	L_ground_torque_z
3.970833	-69.775093	303.786926	-21.667879	1.205401	0	-0.247247	0	0	0	0	0	0	0	-1.419992	0	0	0	0
3.971875	-69.354889	316.00412	-22.675613	1.202748	0	-0.247757	0	0	0	0	0	0	0	-1.32299	0	0	0	0
3.972917	-68.800568	328.486206	-23.678955	1.199964	0	-0.248267	0	0	0	0	0	0	0	-1.228899	0	0	0	0
3.973958	-68.147476	341.253845	-24.673285	1.197071	0	-0.248776	0	0	0	0	0	0	0	-1.138313	0	0	0	0
3.975	-67.432327	354.326691	-25.653816	1.194093	0	-0.249281	0	0	0	0	0	0	0	-1.051813	0	0	0	0
3.976042	-66.69203899999999	367.723083	-26.615643	1.191056	0	-0.249779	0	0	0	0	0	0	0	-0.969973	0	0	0	0
3.977083	-65.962692	381.459564	-27.553772	1.187984	0	-0.250268	0	0	0	0	0	0	0	-0.893355	0	0	0	0
3.978125	-65.27853399999999	395.550903	-28.463169	1.184899	0	-0.250746	0	0	0	0	0	0	0	-0.822501	0	0	0	0
3.979167	-64.67115800000001	410.009491	-29.338804	1.181823	0	-0.251212	0	0	0	0	0	0	0	-0.757935	0	0	0	0
3.980208	-64.16879299999999	424.84549	-30.175695	1.178776	0	-0.251662	0	0	0	0	0	0	0	-0.700157	0	0	0	0
3.98125	-63.79578	440.066284	-30.96895	1.175774	0	-0.252098	0	0	0	0	0	0	0	-0.64964	0	0	0	0
3.982292	-63.572235	455.676544	-31.71382	1.17283	0	-0.252518	0	0	0	0	0	0	0	-0.606829	0	0	0	0
3.983333	-63.513783	471.677979	-32.405731	1.169956	0	-0.252922	0	0	0	0	0	0	0	-0.5721349999999999	0	0	0	0
3.984375	-63.631504	488.069153	-33.040333	1.167158	0	-0.253311	0	0	0	0	0	0	0	-0.545934	0	0	0	0
3.985417	-63.931953	504.845612	-33.613518	1.164442	0	-0.253686	0	0	0	0	0	0	0	-0.528564	0	0	0	0
3.986458	-64.417244	521.999878	-34.121471	1.16181	0	-0.254048	0	0	0	0	0	0	0	-0.520321	0	0	0	0
3.9875	-65.08524300000001	539.5215449999999	-34.560692	1.15926	0	-0.254398	0	0	0	0	0	0	0	-0.521459	0	0	0	0
3.988542	-65.929802	557.3973999999999	-34.927998	1.156791	0	-0.25474	0	0	0	0	0	0	0	-0.532187	0	0	0	0
3.989583	-66.94098700000001	575.611816	-35.220558	1.154396	0	-0.255073	0	0	0	0	0	0	0	-0.552666	0	0	0	0
3.990625	-68.105377	594.147034	-35.435902	1.15207	0	-0.255401	0	0	0	0	0	0	0	-0.583006	0	0	0	0
3.991667	-69.40638	612.983398	-35.571922	1.149805	0	-0.255726	0	0	0	0	0	0	0	-0.623269	0	0	0	0
3.992708	-70.82456999999999	632.0998540000001	-35.626873	1.147592	0	-0.25605	0	0	0	0	0	0	0	-0.673463	0	0	0	0
3.99375	-72.33805099999999	651.473999	-35.599373	1.145421	0	-0.256374	0	0	0	0	0	0	0	-0.733545	0	0	0	0
3.994792	-73.922867	671.082703	-35.488415	1.143281	0	-0.2567	0	0	0	0	0	0	0	-0.803417	0	0	0	0
3.995833	-75.55349	690.9020389999999	-35.293335	1.141164	0	-0.257031	0	0	0	0	0	0	0	-0.882926	0	0	0	0
3.996875	-77.20328499999999	710.907776	-35.013832	1.139058	0	-0.257367	0	0	0	0	0	0	0	-0.971865	0	0	0	0
3.997917	-78.845085	731.075317	-34.649956	1.136954	0	-0.257709	0	0	0	0	0	0	0	-1.069975	0	0	0	0
3.998958	-80.451797	751.3797	-34.20211	1.134843	0	-0.258058	0	0	0	0	0	0	0	-1.176941	0	0	0	0
4	-81.997032	771.795959	-33.671051	1.132716	0	-0.258416	0	0	0	0	0	0	0	-1.292394	0	0	0	0
4.001042	-83.45573400000001	792.298828	-33.05788	1.130567	0	-0.258781	0	0	0	0	0	0	0	-1.415917	0	0	0	0
4.002083	-84.804832	812.862854	-32.364079	1.12839	0	-0.259154	0	0	0	0	0	0	0	-1.547038	0	0	0	0
4.003125	-86.023819	833.46228	-31.591503	1.126181	0	-0.259535	0	0	0	0	0	0	0	-1.685239	0	0	0	0
4.004167	-87.095291	854.070984	-30.742403	1.123936	0	-0.259923	0	0	0	0	0	0	0	-1.829955	0	0	0	0
4.005208	-88.005394	874.662415	-29.81945	1.121655	0	-0.260316	0	0	0	0	0	0	0	-1.980575	0	0	0	0
4.00625	-88.74417099999999	895.209656	-28.825748	1.119336	0	-0.260714	0	0	0	0	0	0	0	-2.136447	0	0	0	0
4.007292	-89.305801	915.6851809999999	-27.764877	1.116982	0	-0.261115	0	0	0	0	0	0	0	-2.296879	0	0	0	0
4.008333	-89.688667	936.060913	-26.6409	1.114596	0	-0.261517	0	0	0	0	0	0	0	-2.461143	0	0	0	0
4.009375	-89.89534	956.30835	-25.458406	1.11218	0	-0.261919	0	0	0	0	0	0	0	-2.62848	0	0	0	0
4.010417	-89.93244900000001	976.3984380000001	-24.22253	1.109741	0	-0.262317	0	0	0	0	0	0	0	-2.798101	0	0	0	0
4.011458	-89.810417	996.3019410000001	-22.938974	1.107283	0	-0.262711	0	0	0	0	0	0	0	-2.969191	0	0	0	0
4.0125	-89.543091	1015.989319	-21.614023	1.104813	0	-0.263098	0	0	0	0	0	0	0	-3.140914	0	0	0	0
4.013542	-89.147339	1035.43103	-20.254557	1.102338	0	-0.263476	0	0	0	0	0	0	0	-3.312418	0	0	0	0
4.014583	-88.642532	1054.597656	-18.868053	1.099863	0	-0.263842	0	0	0	0	0	0	0	-3.482839	0	0	0	0
4.015625	-88.05001799999999	1073.460571	-17.462582	1.097397	0	-0.264196	0	0	0	0	0	0	0	-3.651304	0	0	0	0
4.016667	-87.39250199999999	1091.991455	-16.046776	1.094945	0	-0.264536	0	0	0	0	0	0	0	-3.816937	0	0	0	0
4.017708	-86.69347399999999	1110.163086	-14.629806	1.092514	0	-0.264859	0	0	0	0	0	0	0	-3.978865	0	0	0	0
4.01875	-85.97654	1127.949585	-13.221335	1.090109	0	-0.265166	0	0	0	0	0	0	0	-4.136219	0	0	0	0
4.019792	-85.264809	1145.326538	-11.831455	1.087737	0	-0.265454	0	0	0	0	0	0	0	-4.288142	0	0	0	0
4.020833	-84.580269	1162.27124	-10.470613	1.085403	0	-0.265723	0	0	0	0	0	0	0	-4.433794	0	0	0	0
4.021875	-83.943192	1178.763184	-9.149521	1.083109	0	-0.265972	0	0	0	0	0	0	0	-4.572357	0	0	0	0
4.022917	-83.37159	1194.78418	-7.879054	1.08086	0	-0.266202	0	0	0	0	0	0	0	-4.703035	0	0	0	0
4.023958	-82.88072200000001	1210.318359	-6.670134	1.078659	0	-0.266412	0	0	0	0	0	0	0	-4.825065	0	0	0	0
4.025	-82.48271200000001	1225.352661	-5.533605	1.076507	0	-0.266603	0	0	0	0	0	0	0	-4.937718	0	0	0	0
4.026042	-82.186272	1239.876709	-4.480094	1.074406	0	-0.266774	0	0	0	0	0	0	0	-5.040305	0	0	0	0
4.027083	-81.996483	1253.883423	-3.519873	1.072357	0	-0.266927	0	0	0	0	0	0	0	-5.132178	0	0	0	0
4.028125	-81.91477999999999	1267.368164	-2.662709	1.070359	0	-0.267063	0	0	0	0	0	0	0	-5.212738	0	0	0	0
4.029167	-81.93901099999999	1280.32959	-1.917717	1.068411	0	-0.267181	0	0	0	0	0	0	0	-5.281435	0	0	0	0
4.030208	-82.063667	1292.769287	-1.293216	1.066512	0	-0.267284	0	0	0	0	0	0	0	-5.337773	0	0	0	0
4.03125	-82.28012099999999	1304.691284	-0.796586	1.06466	0	-0.267372	0	0	0	0	0	0	0	-5.381314	0	0	0	0
4.032292	-82.57708	1316.102417	-0.434139	1.062853	0	-0.267447	0	0	0	0	0	0	0	-5.411678	0	0	0	0
4.033333	-82.94101000000001	1327.012085	-0.210998	1.061087	0	-0.267509	0	0	0	0	0	0	0	-5.428546	0	0	0	0
4.034375	-83.356628	1337.431396	-0.130989	1.059358	0	-0.26756	0	0	0	0	0	0	0	-5.431664	0	0	0	0
4.035417	-83.807419	1347.373657	-0.196561	1.057664	0	-0.267601	0	0	0	0	0	0	0	-5.42084	0	0	0	0
4.036458	-84.27610799999999	1356.853516	-0.408714	1.055999	0	-0.267633	0	0	0	0	0	0	0	-5.39595	0	0	0	0
4.0375	-84.745148	1365.886963	-0.766957	1.054359	0	-0.267657	0	0	0	0	0	0	0	-5.356935	0	0	0	0
4.038542	-85.19709	1374.490967	-1.269291	1.052741	0	-0.267673	0	0	0	0	0	0	0	-5.303801	0	0	0	0
4.039583	-85.614998	1382.683105	-1.912215	1.05114	0	-0.267684	0	0	0	0	0	0	0	-5.236621	0	0	0	0
4.040625	-85.982727	1390.481445	-2.690763	1.049552	0	-0.267689	0	0	0	0	0	0	0	-5.155532	0	0	0	0
4.041667	-86.285179	1397.904297	-3.598558	1.047972	0	-0.267689	0	0	0	0	0	0	0	-5.060736	0	0	0	0
4.042708	-86.508537	1404.969604	-4.627905	1.046397	0	-0.267685	0	0	0	0	0	0	0	-4.952496	0	0	0	0
4.04375	-86.640427	1411.695435	-5.769902	1.044824	0	-0.267676	0	0	0	0	0	0	0	-4.831134	0	0	0	0
